<?xml version="1.0" ?><!DOCTYPE svg  PUBLIC '-//W3C//DTD SVG 1.1//EN'  'http://www.w3.org/Graphics/SVG/1.1/DTD/svg11.dtd'><svg height="924.000" viewBox="-724.000 -359.000 1249.000 924.000" width="1249.000" xmlns="http://www.w3.org/2000/svg"><line fill="none" stroke="none" stroke-linecap="round" stroke-width="2.0" x1="0.0" x2="0.0" y1="0.0" y2="0.0"/><polyline fill="none" points="0.0,0.0 21.0,0.0 -67.0,-1.07768918325e-14 -112.0,77.9422863406 -79.0,20.7846096908 -88.5,4.33012701892 -101.5,26.8467875173 -75.0,-19.0525588833 -161.0,-19.0525588833 -158.0,-13.8564064606 -117.0,-84.8704895709 -117.5,-85.7365149747 -151.5,-85.7365149747 -141.5,-85.7365149747 -112.5,-135.965988394 -143.0,-188.793538025 -134.0,-173.205080757 -122.0,-193.989690448 -201.0,-193.989690448 -154.0,-193.989690448 -203.0,-193.989690448 -176.0,-147.224318643 -191.5,-174.071106161 -197.5,-174.071106161 -206.0,-159.348674296 -174.5,-104.789073858 -217.0,-178.40123318 -237.0,-178.40123318 -211.5,-134.233937587 -211.5,-134.233937587 -229.5,-103.05702305 -184.5,-25.1147367097 -208.0,-65.8179306876 -253.0,-65.8179306876 -257.0,-58.8897274573 -225.0,-114.3153533 -285.0,-114.3153533 -260.0,-71.0140831103 -225.0,-131.635861375 -258.5,-189.659563429 -291.5,-189.659563429 -264.5,-142.894191624 -279.5,-168.874953738" stroke="#000" stroke-linecap="round" stroke-linejoin="round"/><polyline fill="none" points="-279.5,-168.874953738 -281.5,-165.410852123 -230.5,-165.410852123 -235.5,-165.410852123 -207.5,-165.410852123 -214.5,-165.410852123 -205.5,-149.822394855 -180.0,-193.989690448 -217.0,-258.075570328 -228.0,-258.075570328 -180.0,-258.075570328 -213.0,-315.233246978 -273.0,-315.233246978 -197.0,-315.233246978 -178.0,-348.142212321 -180.5,-343.812085302 -132.5,-343.812085302 -172.5,-343.812085302 -128.0,-266.735824366 -109.5,-298.778764306 -138.0,-249.41531629 -93.0,-171.473029949 -108.5,-198.319817467 -132.0,-157.616623489 -107.5,-115.181378703 -113.0,-124.707658145 -149.5,-61.4878036687 -124.0,-105.655099262 -124.5,-104.789073858 -93.5,-104.789073858 -116.5,-144.626242432 -165.5,-144.626242432 -81.5,-144.626242432 -99.5,-175.803156968 -106.5,-175.803156968 -99.5,-175.803156968 -93.0,-187.061487217 -128.5,-125.573683549 -119.0,-109.119200877 -131.0,-129.903810568 -101.5,-78.8083117444 -107.5,-89.2006165898 -94.0,-65.8179306876" stroke="#000" stroke-linecap="round" stroke-linejoin="round"/><polyline fill="none" points="-94.0,-65.8179306876 -112.0,-96.9948452239 -179.0,-96.9948452239 -215.5,-33.7749907476 -196.5,-33.7749907476 -157.5,-101.324972243 -162.5,-101.324972243 -121.5,-30.3108891325 -69.5,-30.3108891325 -45.0,-72.7461339179 -45.5,-71.8801085141 44.5,-71.8801085141 -4.5,-71.8801085141 16.5,-71.8801085141 -21.5,-71.8801085141 -10.5,-71.8801085141 -50.5,-71.8801085141 -26.5,-30.3108891325 -34.5,-44.167295593 -18.0,-15.5884572681 10.0,-64.08587988 -23.5,-6.06217782649 0.499999999997,35.5070415552 90.5,35.5070415552 58.5,35.5070415552 58.5,35.5070415552 34.5,35.5070415552 41.0,46.7653718044 69.5,-2.59807621135 33.0,-65.8179306876 -4.0,-65.8179306876 78.0,-65.8179306876 86.0,-79.6743371482 45.0,-8.66025403784 46.5,-6.06217782649 49.5,-11.2583302492 49.5,-11.2583302492 72.5,-51.0954988233 66.5,-61.4878036687 24.5,-61.4878036687 50.0,-17.3205080757 8.0,-90.0666419936 -30.0,-90.0666419936" stroke="#000" stroke-linecap="round" stroke-linejoin="round"/><polyline fill="none" points="-30.0,-90.0666419936 -46.0,-62.3538290725 -25.0,-62.3538290725 -36.0,-81.4063879557 -64.5,-32.04293994 -33.5,21.6506350946 -31.5,21.6506350946 -48.5,21.6506350946 3.5,21.6506350946 27.0,-19.0525588833 -10.0,-83.1384387633 -36.0,-83.1384387633 -59.5,-42.4352447854 -19.5,-111.717277088 -63.0,-36.3730669589 -54.0,-51.9615242271 -67.0,-74.4781847255 -102.0,-74.4781847255 -136.5,-14.7224318643 -92.5,-90.9326673974 -102.0,-74.4781847255 -22.0,-74.4781847255 -104.0,-74.4781847255 -101.0,-69.2820323028 -46.0,-69.2820323028 -82.5,-132.501886779 -165.5,-132.501886779 -124.5,-61.4878036687 -99.5,-104.789073858 -108.5,-89.2006165898 -92.5,-116.913429511 -105.0,-138.564064606 -112.5,-125.573683549 -87.0,-81.4063879557 -70.0,-81.4063879557 -104.0,-140.296115413 -116.0,-119.511505722 -88.5,-71.8801085141 -87.5,-71.8801085141 -94.0,-83.1384387633 -102.5,-68.416006899 -61.5,2.59807621135 -18.5,2.59807621136" stroke="#000" stroke-linecap="round" stroke-linejoin="round"/><polyline fill="none" points="-18.5,2.59807621136 -36.0,-27.7128129211 7.0,46.7653718044 7.0,46.7653718044 30.0,86.6025403784 81.0,86.6025403785 122.5,14.7224318643 73.5,14.7224318643 121.5,14.7224318643 42.5,14.7224318643 69.5,61.4878036687 78.5,61.4878036687 116.0,-3.46410161513 109.5,-14.7224318643 60.5,-14.7224318643 28.0,41.5692193817 33.0,32.9089653438 16.5,61.4878036687 71.5,61.4878036687 26.5,61.4878036687 18.5,75.3442101293 53.5,135.965988394 62.5,120.377531126 38.5,78.8083117444 42.5,85.7365149747 48.5,85.7365149747 12.5,23.3826859022 -43.5,23.3826859022 -2.00000000001,95.2627944163 73.0,95.2627944163 115.5,21.6506350946 82.0,-36.3730669589 18.0,-36.3730669589 61.0,-36.3730669589 59.0,-39.8371685741 39.5,-6.06217782649 113.5,-6.06217782648 132.5,-38.9711431703 79.5,-38.9711431703 111.5,16.4544826719 142.5,-37.2390923627 138.5,-44.167295593 112.5,0.866025403792" stroke="#000" stroke-linecap="round" stroke-linejoin="round"/><polyline fill="none" points="112.5,0.866025403792 118.0,-8.66025403784 110.0,-8.66025403784 154.5,68.416006899 124.0,15.5884572681 157.5,73.6121593217 116.5,2.59807621136 147.5,56.291651246 237.5,56.291651246 282.5,-21.6506350946 217.5,-21.6506350946 239.5,-21.6506350946 202.0,-86.6025403784 159.5,-12.9903810568 182.5,-12.9903810568 141.5,-12.9903810568 107.0,46.7653718044 148.0,46.7653718044 173.0,3.46410161515 138.5,-56.291651246 144.0,-46.7653718044 188.5,-123.841632741 168.0,-159.348674296 183.5,-132.501886779 265.5,-132.501886779 226.5,-132.501886779 258.0,-77.9422863406 321.0,-77.9422863406 310.0,-96.9948452238 348.0,-31.1769145362 322.0,-76.210235533 309.5,-54.5596004384 315.5,-44.167295593 318.5,-44.167295593 299.5,-77.0762609368 232.5,-77.0762609368 211.5,-40.7031939779 219.5,-40.7031939779 185.5,-99.5929214352 144.5,-28.5788383249 145.5,-28.5788383249 114.5,-82.2724133595 60.5,-82.2724133595" stroke="#000" stroke-linecap="round" stroke-linejoin="round"/><polyline fill="none" points="60.5,-82.2724133595 97.5,-18.1865334795 95.0,-22.5166604984 46.0,-22.5166604984 23.5,16.4544826719 55.0,71.0140831103 78.5,30.3108891325 60.5,61.4878036687 82.0,98.7268960314 172.0,98.7268960314 84.0,98.7268960314 149.0,98.7268960314 127.0,60.6217782649 100.5,106.521124665 158.5,106.521124665 197.0,39.8371685741 142.0,39.8371685741 217.0,39.8371685741 230.5,16.4544826719 223.5,28.5788383249 299.5,28.5788383249 336.0,-34.6410161514 324.0,-34.6410161514 338.0,-34.6410161514 309.0,-34.6410161514 322.0,-34.6410161514 285.0,-34.6410161514 368.0,-34.6410161514 406.0,-100.458946839 369.0,-100.458946839 416.0,-100.458946839 370.0,-100.458946839 395.5,-56.291651246 423.5,-56.291651246 427.5,-63.2198544762 421.5,-52.8275496308 433.5,-52.8275496308 433.0,-53.6935750346 417.0,-53.6935750346 390.5,-7.79422863404 406.5,-35.5070415551 318.5,-35.5070415551 313.0,-25.9807621135" stroke="#000" stroke-linecap="round" stroke-linejoin="round"/><polyline fill="none" points="313.0,-25.9807621135 352.0,-93.5307436087 322.0,-41.5692193816 343.0,-77.9422863406 336.0,-90.0666419936 255.0,-90.0666419936 286.0,-36.3730669589 293.0,-36.3730669589 246.0,-36.3730669589 283.0,27.7128129211 333.0,27.7128129211 356.0,-12.124355653 299.0,-12.124355653 308.0,3.46410161515 313.5,-6.06217782648 287.5,38.9711431703 331.0,-36.3730669589 294.0,-100.458946839 258.0,-100.458946839 348.0,-100.458946839 345.0,-105.655099262 373.0,-57.1576766498 370.0,-62.3538290725 391.0,-25.9807621135 415.0,-25.9807621135 418.0,-31.1769145362 411.0,-31.1769145362 459.0,-31.1769145362 427.0,-31.1769145362 457.0,-31.1769145362 419.5,-96.1288198201 383.5,-96.1288198201 466.5,-96.12881982 422.0,-173.205080757 363.0,-173.205080757 363.0,-173.205080757 436.0,-173.205080757 398.0,-239.023011444 362.0,-176.669182372 412.0,-176.669182372 404.5,-189.659563429 406.5,-186.195461814 424.0,-216.506350946" stroke="#000" stroke-linecap="round" stroke-linejoin="round"/><polyline fill="none" points="424.0,-216.506350946 415.0,-216.506350946 465.0,-216.506350946 432.0,-216.506350946 507.0,-216.506350946 473.5,-274.530053 409.5,-274.530053 381.5,-226.032630388 389.5,-239.889036848 376.5,-262.405697347 398.0,-225.166604984 407.0,-240.755062252 384.5,-201.783919082 399.0,-176.669182372 371.5,-224.30057958 317.5,-224.30057958 276.0,-152.420471066 324.0,-152.420471066 365.5,-224.30057958 321.5,-224.30057958 287.0,-164.544826719 316.0,-214.774300139 306.5,-198.319817467 375.5,-198.319817467 354.5,-234.692884426 317.0,-169.740979142 357.0,-169.740979142 299.0,-169.740979142 299.0,-169.740979142 354.0,-169.740979142 337.5,-198.319817467 381.0,-122.975607337 437.0,-122.975607337 369.0,-122.975607337 406.5,-58.0237020535 421.5,-84.0044641671 407.5,-59.7557528611 444.0,3.46410161516 513.0,3.46410161517 476.0,3.46410161516 468.0,17.3205080757 499.5,-37.2390923627 466.5,19.9185842871" stroke="#000" stroke-linecap="round" stroke-linejoin="round"/><polyline fill="none" points="466.5,19.9185842871 468.0,17.3205080757 387.0,17.3205080757 394.0,17.3205080757 304.0,17.3205080757 342.0,83.1384387633 302.5,14.7224318643 308.5,25.1147367098 310.5,25.1147367098 281.5,25.1147367098 302.0,60.6217782649 274.0,12.124355653 245.0,62.3538290725 257.0,41.5692193817 237.5,7.79422863407 253.0,34.6410161514 233.0,9.57811607805e-12 277.0,76.210235533 272.0,67.5499814952 307.0,128.17175976 335.0,128.17175976 369.0,69.2820323028 338.0,15.5884572681 287.0,15.5884572681 243.0,91.7986928012 251.5,106.521124665 284.0,50.2294734195 239.5,127.305734356 254.0,102.190997647 223.0,155.884572681 280.0,155.884572681 237.0,155.884572681 197.5,224.30057958 200.5,219.104427157 169.0,273.664027596 210.0,344.678110706 264.0,344.678110706 292.0,296.180688094 281.5,277.994154615 284.5,283.190307038 292.0,270.199925981 260.0,214.774300139 188.0,214.774300139" stroke="#000" stroke-linecap="round" stroke-linejoin="round"/><polyline fill="none" points="188.0,214.774300139 269.0,214.774300139 257.0,193.989690448 251.0,204.381995293 277.0,249.41531629 314.0,185.32943641 287.0,232.094808214 314.5,184.463411006 248.5,184.463411006 205.0,259.807621135 240.0,259.807621135 243.5,253.745443309 237.5,264.137748154 255.0,233.826859022 214.0,162.812775911 159.0,162.812775911 156.0,168.008928334 242.0,168.008928334 235.0,168.008928334 301.0,168.008928334 321.5,132.501886779 275.5,132.501886779 317.5,132.501886779 274.0,57.1576766498 197.0,57.1576766498 198.5,59.7557528611 251.5,59.7557528611 282.0,6.92820323029 255.5,-38.9711431703 253.5,-35.5070415552 298.5,-113.449327896 269.0,-62.3538290725 270.5,-59.7557528611 278.5,-73.6121593217 203.5,-73.6121593217 196.0,-60.6217782649 238.5,-134.233937587 213.5,-134.233937587 257.5,-58.0237020535 252.5,-66.6839560914 224.5,-66.6839560914 231.0,-55.4256258422 249.5,-87.4685657822" stroke="#000" stroke-linecap="round" stroke-linejoin="round"/><polyline fill="none" points="249.5,-87.4685657822 233.5,-87.4685657822 226.5,-75.3442101292 243.0,-46.7653718043 258.0,-46.7653718043 201.0,-46.7653718044 220.0,-13.8564064605 189.0,-67.5499814952 180.0,-67.5499814952 188.5,-52.8275496308 250.5,-52.8275496308 226.5,-94.3967690125 212.5,-94.3967690125 268.5,-94.3967690125 251.0,-124.707658145 259.0,-110.851251684 267.0,-124.707658145 238.0,-74.4781847255 286.0,-74.4781847254 262.0,-74.4781847255 242.5,-40.7031939779 243.5,-42.4352447854 154.5,-42.4352447854 186.5,12.9903810568 169.0,-17.3205080757 122.0,-17.3205080757 130.5,-2.59807621135 148.5,-2.59807621135 83.5,-2.59807621136 129.5,-2.59807621135 150.0,-38.1051177665 135.0,-12.124355653 139.0,-12.124355653 135.5,-18.1865334795 105.5,33.7749907476 129.0,74.4781847255 143.0,74.4781847255 178.5,12.9903810568 148.5,12.9903810568 147.0,15.5884572681 190.0,90.0666419936 228.0,24.248711306 183.5,-52.8275496308" stroke="#000" stroke-linecap="round" stroke-linejoin="round"/><polyline fill="none" points="183.5,-52.8275496308 96.5,-52.8275496309 60.0,10.3923048454 60.5,9.52627944162 49.5,9.52627944162 94.5,87.4685657822 69.5,44.167295593 102.5,101.324972243 93.5,85.7365149747 37.5,85.7365149747 59.5,123.841632741 42.0,93.5307436087 51.0,109.119200877 40.5,90.9326673974 -11.5,90.9326673974 -53.0,162.812775911 -36.0,192.25763964 -46.5,174.071106161 -60.5,174.071106161 -71.5,193.123665044 -65.5,193.123665044 -71.5,193.123665044 -63.0,207.846096908 -87.0,166.276877527 -123.0,166.276877527 -85.0,232.094808214 -62.0,232.094808214 -112.0,232.094808214 -84.5,279.726205422 -45.5,212.176223927 -106.5,212.176223927 -135.0,261.539671943 -103.0,206.114046101 -139.5,142.894191624 -224.5,142.894191624 -215.5,158.482648893 -228.0,136.832013798 -232.0,136.832013798 -179.0,136.832013798 -191.5,115.181378703 -198.5,115.181378703 -177.5,115.181378703 -184.0,103.923048454" stroke="#000" stroke-linecap="round" stroke-linejoin="round"/><polyline fill="none" points="-184.0,103.923048454 -172.5,123.841632741 -165.5,111.717277088 -165.5,111.717277088 -196.0,164.544826719 -167.0,114.3153533 -207.5,184.463411006 -164.5,109.985226281 -196.5,165.410852123 -170.5,210.44417312 -127.5,135.965988394 -205.5,135.965988394 -238.0,192.25763964 -212.5,148.090344047 -240.0,100.458946839 -219.0,136.832013798 -212.0,136.832013798 -204.0,122.975607337 -292.0,122.975607337 -309.0,152.420471066 -243.0,152.420471066 -292.0,152.420471066 -298.0,162.812775911 -259.5,229.496732003 -292.0,173.205080757 -267.5,215.640325542 -245.0,176.669182372 -274.0,226.898655791 -248.0,271.931976788 -254.0,261.539671943 -278.0,261.539671943 -290.5,283.190307037 -288.0,278.860180019 -314.0,278.860180019 -272.5,350.740288533 -275.5,345.54413611 -286.5,345.54413611 -301.5,371.524898223 -283.5,371.524898223 -308.5,371.524898223 -351.0,445.137057545 -314.5,381.917203069 -359.5,303.974916728" stroke="#000" stroke-linecap="round" stroke-linejoin="round"/><polyline fill="none" points="-359.5,303.974916728 -376.5,303.974916728 -361.0,330.821704246 -278.0,330.821704246 -345.0,330.821704246 -306.0,330.821704246 -338.5,274.530053 -403.5,274.530053 -371.5,329.955678842 -399.0,282.324281634 -433.0,341.214009091 -384.0,341.214009091 -392.0,341.214009091 -399.5,354.204390148 -343.5,354.204390148 -396.5,354.204390148 -365.5,354.204390148 -367.5,354.204390148 -378.5,373.256949031 -356.5,335.151831265 -389.5,335.151831265 -426.0,398.371685741 -407.5,366.328745801 -455.5,366.328745801 -374.5,366.328745801 -417.0,292.716586479 -412.0,301.376840517 -376.5,239.889036848 -407.5,293.582611883 -366.5,293.582611883 -321.5,215.640325542 -353.5,271.065951384 -323.5,219.104427157 -323.5,219.104427157 -291.5,274.530053 -285.0,263.27172275 -349.0,263.27172275 -369.0,297.912738902 -293.0,297.912738902 -288.0,289.252484864 -327.5,220.836477965 -352.0,263.27172275 -335.5,234.692884426" stroke="#000" stroke-linecap="round" stroke-linejoin="round"/><polyline fill="none" points="-335.5,234.692884426 -364.0,284.056332441 -339.5,241.621087656 -349.5,241.621087656 -349.0,242.48711306 -301.0,242.48711306 -293.5,229.496732003 -308.0,204.381995293 -377.0,204.381995293 -358.0,204.381995293 -377.0,204.381995293 -300.0,204.381995293 -267.5,148.090344047 -284.0,176.669182372 -257.5,130.769835971 -329.5,130.769835971 -344.5,156.750598085 -339.5,156.750598085 -373.5,156.750598085 -373.0,157.616623489 -411.0,91.7986928011 -431.5,127.305734356 -410.0,164.544826719 -354.0,164.544826719 -381.0,164.544826719 -378.5,168.874953738 -397.0,136.832013798 -451.0,136.832013798 -448.0,142.028166221 -387.0,142.028166221 -429.0,142.028166221 -458.5,193.123665044 -428.5,245.085189271 -447.5,212.176223927 -459.5,232.960833618 -456.5,227.764681195 -480.0,268.467875173 -461.0,268.467875173 -482.0,268.467875173 -464.0,268.467875173 -473.5,252.013392501 -452.0,289.252484864 -399.0,289.252484864" stroke="#000" stroke-linecap="round" stroke-linejoin="round"/><polyline fill="none" points="-399.0,289.252484864 -443.5,212.176223927 -465.0,249.41531629 -458.5,238.156986041 -483.5,238.156986041 -456.5,238.156986041 -506.5,238.156986041 -423.5,238.156986041 -428.0,230.362757407 -447.5,264.137748154 -377.5,264.137748154 -390.5,241.621087656 -405.5,267.601849769 -328.5,267.601849769 -369.5,196.587766659 -348.0,233.826859022 -309.0,166.276877527 -345.5,229.496732003 -303.0,155.884572681 -345.5,82.2724133595 -306.5,149.822394855 -346.0,81.4063879557 -352.0,91.7986928011 -333.0,91.7986928011 -375.0,19.0525588832 -348.0,65.8179306876 -331.0,65.8179306876 -362.0,12.1243556529 -404.5,85.7365149746 -386.5,54.5596004384 -464.5,54.5596004384 -422.5,54.5596004384 -450.5,6.06217782643 -524.5,6.06217782642 -550.0,50.2294734194 -531.5,18.1865334794 -554.5,58.0237020535 -550.5,51.0954988232 -622.5,51.0954988232 -613.0,67.5499814951 -654.0,-3.46410161522 -647.0,8.66025403776 -624.0,8.66025403776" stroke="#000" stroke-linecap="round" stroke-linejoin="round"/><polyline fill="none" points="-624.0,8.66025403776 -713.0,8.66025403775 -653.0,8.66025403776 -674.5,-28.578838325 -692.5,2.59807621126 -677.5,2.59807621127 -643.5,-56.2916512461 -673.5,-56.2916512461 -671.5,-52.8275496309 -625.5,-52.8275496309 -625.5,-52.8275496309 -627.5,-52.8275496309 -625.5,-49.3634480158 -657.0,-103.923048454 -620.0,-39.8371685742 -579.0,-110.851251684 -614.0,-50.2294734196 -607.5,-38.9711431704 -545.5,-38.9711431704 -513.0,-95.2627944164 -562.0,-95.2627944164 -603.0,-24.248711306 -570.0,32.9089653437 -483.0,32.9089653437 -452.0,-20.7846096909 -464.5,0.866025403726 -400.5,0.866025403734 -406.5,-9.52627944168 -453.5,-9.52627944169 -382.5,-9.52627944168 -411.5,-9.52627944168 -387.5,32.04293994 -298.5,32.04293994 -297.0,29.4448637286 -325.0,77.9422863406 -324.5,77.0762609368 -368.5,0.866025403738 -390.0,38.1051177665 -303.0,38.1051177665 -331.0,38.1051177665 -323.5,51.0954988232 -339.5,23.3826859021 -381.5,96.12881982" stroke="#000" stroke-linecap="round" stroke-linejoin="round"/><polyline fill="none" points="-381.5,96.12881982 -364.0,126.439708952 -372.0,112.583302492 -413.0,183.597385602 -374.5,250.281341694 -334.0,180.133283987 -375.0,251.147367097 -344.5,198.319817467 -418.5,198.319817467 -430.5,219.104427157 -405.0,174.937131564 -436.0,121.24355653 -440.0,128.17175976 -430.0,110.851251684 -459.5,161.946750508 -449.5,161.946750508 -444.5,153.28649647 -460.0,180.133283987 -435.0,223.434554176 -388.0,223.434554176 -427.5,155.018547277 -445.0,185.32943641 -437.0,199.18584287 -439.0,195.721741255 -421.0,226.898655791 -376.0,226.898655791 -407.0,226.898655791 -389.0,258.075570328 -399.0,240.755062252 -399.0,240.755062252 -315.0,240.755062252 -315.5,239.889036848 -294.5,276.262103807 -216.5,276.262103807 -212.5,269.333900577 -238.5,224.30057958 -242.5,231.22878281 -199.5,156.750598085 -211.5,177.535207776 -181.0,124.707658145 -210.0,174.937131564 -191.0,207.846096908 -147.0,131.635861375" stroke="#000" stroke-linecap="round" stroke-linejoin="round"/><polyline fill="none" points="-147.0,131.635861375 -156.0,147.224318643 -113.5,220.836477965 -80.5,163.678801315 -114.0,105.655099262 -131.0,135.09996299 -125.5,144.626242432 -109.5,144.626242432 -149.5,75.3442101292 -188.5,142.894191624 -129.5,142.894191624 -129.0,142.028166221 -141.0,142.028166221 -75.0,142.028166221 -114.0,142.028166221 -145.0,195.721741255 -141.0,202.649944486 -115.0,202.649944486 -195.0,202.649944486 -227.5,258.941595732 -180.5,258.941595732 -179.5,257.209544924 -208.5,307.439018343 -205.5,312.635170766 -246.0,242.48711306 -219.0,289.252484864 -261.0,216.506350946 -272.5,236.424935233 -261.0,216.506350946 -300.5,284.922357845 -274.5,284.922357845 -283.0,270.199925981 -346.0,270.199925981 -352.5,281.45825623 -309.5,206.980071504 -318.5,191.391614236 -304.5,215.640325542 -277.0,168.008928334 -319.0,240.755062252 -293.0,195.721741255 -313.0,161.080725104 -282.0,214.774300139 -288.0,204.381995293" stroke="#000" stroke-linecap="round" stroke-linejoin="round"/><polyline fill="none" points="-288.0,204.381995293 -340.0,204.381995293 -342.5,208.712122312 -321.0,245.951214675 -321.0,245.951214675 -316.0,237.290960637 -350.5,177.535207776 -322.5,226.032630388 -235.5,226.032630388 -201.5,167.14290293 -211.0,150.688420258 -214.0,155.884572681 -181.5,212.176223927 -196.0,187.061487217 -165.5,239.889036848 -166.5,238.156986041 -174.5,252.013392501 -164.5,269.333900577 -99.5,269.333900577 -170.5,269.333900577 -196.0,313.50119617 -195.0,311.769145362 -204.0,311.769145362 -167.0,311.769145362 -169.0,308.305043747 -163.0,318.697348593 -149.0,294.448637287 -189.5,364.596694993 -169.0,329.089653438 -173.0,329.089653438 -210.5,394.041558722 -198.5,394.041558722 -286.5,394.041558722 -327.0,464.189616428 -255.0,464.189616428 -223.0,408.763990586 -257.0,467.653718044 -216.0,538.667801154 -173.0,464.189616428 -234.0,464.189616428 -194.0,533.471648731 -141.0,533.471648731 -142.5,530.87357252" stroke="#000" stroke-linecap="round" stroke-linejoin="round"/><polyline fill="none" points="-142.5,530.87357252 -129.5,553.390233018 -118.5,553.390233018 -153.5,492.768454753 -155.5,496.232556368 -138.0,526.543445501 -117.5,491.036403946 -121.5,484.108200715 -123.5,484.108200715 -119.0,491.90242935 -148.5,440.806930526 -148.0,441.67295593 -122.5,397.505660337 -137.0,422.620397047 -102.5,362.864644186 -123.0,398.371685741 -100.0,438.208854315 -133.0,381.051177665 -113.0,415.692193817 -112.0,413.960143009 -125.5,437.342828911 -95.5000000001,437.342828911 -132.5,437.342828911 -124.0,452.065260775 -92.0000000001,452.065260775 -171.0,452.065260775 -200.0,502.294734195 -176.5,542.997928173 -121.5,542.997928173 -98.5000000001,503.160759599 -120.0,540.399851961 -84.5000000001,478.912048293 -123.5,546.462029788 -122.5,546.462029788 -123.0,545.596004384 -126.0,545.596004384 -80.0000000001,545.596004384 -121.5,473.71589587 -137.0,500.562683387 -99.0000000001,434.7447527 -137.0,368.926822012 -201.0,368.926822012 -173.0,417.424244624" stroke="#000" stroke-linecap="round" stroke-linejoin="round"/><polyline fill="none" points="-173.0,417.424244624 -133.0,417.424244624 -174.5,345.54413611 -183.0,360.266567974 -180.0,355.070415552 -181.5,357.668491763 -141.5,357.668491763 -169.5,357.668491763 -199.0,408.763990586 -197.0,412.228092201 -174.0,372.390923627 -228.0,372.390923627 -184.0,372.390923627 -162.5,335.151831265 -183.5,298.778764306 -185.0,301.376840517 -164.5,265.869798962 -174.0,282.324281634 -152.5,319.563373996 -138.5,295.31466269 -189.5,295.31466269 -107.5,295.31466269 -186.5,295.31466269 -204.0,325.625551823 -167.0,325.625551823 -202.5,264.137748154 -238.5,264.137748154 -266.0,311.769145362 -232.0,370.65887282 -266.0,311.769145362 -260.0,322.161450208 -226.0,263.27172275 -229.0,263.27172275 -246.5,293.582611883 -213.5,293.582611883 -297.5,293.582611883 -291.0,304.840942132 -281.5,288.38645946 -318.5,224.30057958 -368.5,224.30057958 -312.5,224.30057958 -313.5,224.30057958 -301.0,245.951214675" stroke="#000" stroke-linecap="round" stroke-linejoin="round"/><polyline fill="none" points="-301.0,245.951214675 -287.0,245.951214675 -308.0,209.578147716 -286.5,246.817240079 -262.5,205.248020697 -283.5,205.248020697 -307.5,246.817240079 -285.0,207.846096908 -299.0,183.597385602 -256.5,257.209544924 -272.0,230.362757407 -298.5,276.262103807 -263.0,337.749907476 -292.5,286.654408653 -270.5,324.759526419 -241.5,274.530053 -316.5,274.530053 -328.5,295.31466269 -314.5,271.065951384 -331.0,242.48711306 -315.5,269.333900577 -314.0,266.735824366 -332.0,235.558909829 -317.0,261.539671943 -300.0,232.094808214 -341.0,232.094808214 -329.0,232.094808214 -360.5,177.535207776 -383.5,177.535207776 -327.5,177.535207776 -327.5,177.535207776 -295.5,177.535207776 -287.5,163.678801315 -309.0,200.917893678 -297.5,220.836477965" stroke="#000" stroke-linecap="round" stroke-linejoin="round"/><polygon fill="none" fill-rule="evenodd" points="0.0,0.0 0.0,0.0 0.0,0.0" stroke-linejoin="round"/></svg>